<?xml version="1.0" standalone="no"?>
<!DOCTYPE svg PUBLIC "-//W3C//DTD SVG 20010904//EN"
 "http://www.w3.org/TR/2001/REC-SVG-20010904/DTD/svg10.dtd">
<svg version="1.0" xmlns="http://www.w3.org/2000/svg"
 width="512.000000pt" height="512.000000pt" viewBox="0 0 512.000000 512.000000"
 preserveAspectRatio="xMidYMid meet">
<metadata>
Created by potrace 1.14, written by Peter Selinger 2001-2017
</metadata>
<g transform="translate(0.000000,512.000000) scale(0.100000,-0.100000)"
fill="#000000" stroke="none">
<path d="M1196 5047 c-15 -10 -33 -31 -40 -46 -36 -69 -182 -512 -200 -607 -2
-11 -9 -37 -15 -59 -12 -46 -48 -244 -57 -313 -3 -26 -7 -58 -9 -71 -11 -63
-18 -199 -19 -316 0 -126 11 -323 19 -348 2 -7 7 -30 10 -52 3 -22 10 -65 15
-96 10 -53 8 -59 -31 -150 -80 -182 -140 -364 -180 -544 -71 -315 -59 -707 26
-851 46 -79 162 -123 249 -94 20 6 62 31 93 54 32 23 165 117 296 209 l238
168 28 -23 c16 -13 66 -54 112 -93 102 -84 116 -95 244 -183 95 -66 262 -172
270 -172 2 0 28 -14 57 -31 173 -103 512 -257 788 -359 63 -23 124 -46 135
-51 11 -4 63 -22 115 -40 512 -172 856 -458 895 -744 12 -89 16 -103 39 -124
60 -57 151 -29 179 56 18 56 15 209 -7 338 -7 44 -13 111 -12 149 l1 70 75 16
c150 33 284 114 408 245 99 104 174 221 174 269 0 38 -26 81 -57 93 -11 4
-105 8 -210 9 -171 0 -314 8 -355 19 -8 2 -37 7 -63 10 -188 21 -484 126 -620
219 -21 14 -40 26 -42 26 -9 0 -61 46 -136 120 -117 116 -184 224 -238 388
-47 141 -58 224 -66 495 -3 104 -7 192 -10 197 -6 10 -10 8 200 82 94 33 240
85 325 115 85 30 194 69 242 85 48 17 103 44 122 60 74 61 97 169 54 256 -27
53 -165 198 -255 265 -115 88 -254 166 -438 247 -125 56 -427 146 -555 166
-91 14 -89 13 -131 76 -94 138 -219 273 -364 392 -100 83 -264 196 -283 196
-6 0 -12 4 -14 9 -4 13 -218 114 -318 151 -77 29 -197 66 -243 75 -10 3 -26 6
-35 9 -9 3 -33 8 -52 11 -19 3 -53 10 -75 15 -46 10 -128 20 -201 24 -38 2
-58 -2 -78 -17z"/>
<path d="M4406 4465 c-142 -50 -184 -250 -74 -352 40 -38 105 -61 159 -57 119
8 204 100 200 217 -5 145 -148 241 -285 192z"/>
<path d="M175 3650 c-92 -20 -160 -93 -171 -184 -11 -89 36 -175 119 -218 60
-30 152 -22 209 18 108 75 123 225 34 322 -41 46 -130 75 -191 62z"/>
<path d="M1840 624 c-76 -33 -131 -113 -131 -192 -2 -211 264 -297 385 -124
40 57 48 149 18 208 -54 104 -172 151 -272 108z"/>
</g>
</svg>
